<svg xmlns="http://www.w3.org/2000/svg" xmlns:xlink="http://www.w3.org/1999/xlink" width="173.28" height="48.295" viewBox="0 0 173.28 48.295">
  <defs>
    <filter id="Subtraction_1" x="0" y="0" width="52.56" height="48.295" filterUnits="userSpaceOnUse">
      <feOffset dy="3" input="SourceAlpha"/>
      <feGaussianBlur stdDeviation="3" result="blur"/>
      <feFlood flood-color="#363636" flood-opacity="0.161"/>
      <feComposite operator="in" in2="blur"/>
      <feComposite in="SourceGraphic"/>
    </filter>
  </defs>
  <g id="Group_23" data-name="Group 23" transform="translate(-89.72 -266.852)">
    <g transform="matrix(1, 0, 0, 1, 89.72, 266.85)" filter="url(#Subtraction_1)">
      <path id="Subtraction_1-2" data-name="Subtraction 1" d="M-1481.8-23.561l-2.833,22.209h-9.57l-2.822-22.32h11.683l2.309-7.975,1.309.395-2.215,7.675,2.139.017Zm-16.577,12.849s.358-2.88-4.6-2.88h-7.9c-4.955,0-4.6,2.88-4.6,2.88h17.111Zm-17.111,6.48s-.351,2.88,4.6,2.88h7.9c4.962,0,4.6-2.88,4.6-2.88h-17.112Zm16.369-1.44a1.656,1.656,0,0,0,1.468-1.8,1.654,1.654,0,0,0-1.468-1.8h-15.7a1.657,1.657,0,0,0-1.469,1.8,1.659,1.659,0,0,0,1.469,1.8Z" transform="translate(1525.28 37.65)" fill="#fff"/>
    </g>
    <text id="Foodclick" transform="translate(141 303)" fill="#fff" font-size="26" font-family="HelveticaNeue-Bold, Helvetica Neue" font-weight="700"><tspan x="0" y="0">Foodclick</tspan></text>
  </g>
</svg>
